<svg id="Layer_1" data-name="Layer 1" xmlns="http://www.w3.org/2000/svg" viewBox="0 0 324.7 157.45"><defs><style>.cls-1{fill:#cce4ff;}.cls-2{fill:#007aff;}.cls-3{fill:#045299;}</style></defs><title>logosvg</title><path class="cls-1" d="M420.6,89.91h21.3c0-11.33-9.55-20.54-21.3-20.54s-21.29,9.21-21.29,20.54Zm42.59,0c0,17.9-11.85,33.09-28.39,38.71a43.87,43.87,0,0,1-28.39,0C389.87,123,378,107.81,378,89.91c0-22.7,19.05-41.08,42.58-41.08S463.19,67.21,463.19,89.91Z" transform="translate(-367.37 -45.41)"/><path class="cls-2" d="M417.05,110.44a3.55,3.55,0,0,0,7.1,0V93.33H441.9a3.48,3.48,0,0,0,3.54-3.42c0-13.22-11.14-24-24.84-24s-24.84,10.74-24.84,24a3.49,3.49,0,0,0,3.55,3.42h17.74Zm3.55-37.65A17.63,17.63,0,0,1,438,86.48H403.21A17.63,17.63,0,0,1,420.6,72.79Z" transform="translate(-367.37 -45.41)"/><path class="cls-2" d="M378,154.94a10.48,10.48,0,0,0-10.65,10.27v27.38A10.48,10.48,0,0,0,378,202.86h85.17a10.47,10.47,0,0,0,10.64-10.27V165.21a10.47,10.47,0,0,0-10.64-10.27H438.35v-24c17.07-6.85,28.39-23,28.39-41,0-24.54-20.7-44.5-46.14-44.5s-46.13,20-46.13,44.5c0,18,11.32,34.18,28.39,41v24Zm67.42,6.84v13.7H395.76v-13.7Zm21.3,3.43v27.38a3.49,3.49,0,0,1-3.55,3.42H378a3.49,3.49,0,0,1-3.55-3.42V165.21a3.49,3.49,0,0,1,3.55-3.43h10.64V178.9a3.49,3.49,0,0,0,3.55,3.42H449a3.49,3.49,0,0,0,3.55-3.42V161.78h10.65A3.5,3.5,0,0,1,466.74,165.21Zm-85.17-75.3c0-20.76,17.51-37.65,39-37.65s39,16.89,39,37.65c0,15.94-10.46,30.2-26,35.48h0a40.3,40.3,0,0,1-26,0h0C392,120.11,381.57,105.85,381.57,89.91ZM410,133.2a47.82,47.82,0,0,0,21.29,0v21.74H410Z" transform="translate(-367.37 -45.41)"/><path class="cls-2" d="M543.22,101V124.1a11.15,11.15,0,0,1-1.72,6.39,10.73,10.73,0,0,1-4.54,3.84,14.76,14.76,0,0,1-6.13,1.27,14.92,14.92,0,0,1-6.27-1.27,10.1,10.1,0,0,1-4.43-3.84,11.62,11.62,0,0,1-1.63-6.39V101H523V124.1a8.87,8.87,0,0,0,1,4.4,6.2,6.2,0,0,0,2.75,2.59,10.25,10.25,0,0,0,8.22,0,6.15,6.15,0,0,0,2.73-2.59,8.87,8.87,0,0,0,1-4.4V101Z" transform="translate(-367.37 -45.41)"/><path class="cls-2" d="M561.9,130l1.25,5.15h-3.52L547,101h5Zm9.45-29h4.94l-12.63,34.12h-3.51l1.17-5.15Z" transform="translate(-367.37 -45.41)"/><path class="cls-3" d="M599.05,126.51a5.13,5.13,0,0,0-.68-2.74,5.92,5.92,0,0,0-2.43-2,28.23,28.23,0,0,0-5-1.85,33.88,33.88,0,0,1-4.56-1.66,15.42,15.42,0,0,1-3.48-2.12,8.37,8.37,0,0,1-2.22-2.74,7.75,7.75,0,0,1-.78-3.54,8.17,8.17,0,0,1,1.45-4.77,9.64,9.64,0,0,1,4-3.3,14.23,14.23,0,0,1,6.09-1.21A13.51,13.51,0,0,1,598,102a10.42,10.42,0,0,1,4.11,3.82,9.69,9.69,0,0,1,1.4,5H599a7.08,7.08,0,0,0-.81-3.42,5.63,5.63,0,0,0-2.47-2.35,9.18,9.18,0,0,0-4.22-.86,9.29,9.29,0,0,0-4,.73,5.09,5.09,0,0,0-2.31,2,5.34,5.34,0,0,0-.75,2.83,4.19,4.19,0,0,0,.82,2.54,7.07,7.07,0,0,0,2.58,2,26.29,26.29,0,0,0,4.55,1.69,27.89,27.89,0,0,1,6.35,2.5,10,10,0,0,1,3.67,3.38,8.66,8.66,0,0,1,1.18,4.59,8.08,8.08,0,0,1-1.47,4.83,9.48,9.48,0,0,1-4.15,3.19,16.12,16.12,0,0,1-6.28,1.12,17.13,17.13,0,0,1-4.66-.65,13.87,13.87,0,0,1-4.14-2,10,10,0,0,1-3-3.25,8.85,8.85,0,0,1-1.11-4.49h4.54a6.36,6.36,0,0,0,.68,3,6,6,0,0,0,1.85,2.08,8.28,8.28,0,0,0,2.68,1.21,12.39,12.39,0,0,0,3.14.39,10.63,10.63,0,0,0,4-.67,5.45,5.45,0,0,0,2.49-1.89A4.87,4.87,0,0,0,599.05,126.51Z" transform="translate(-367.37 -45.41)"/><path class="cls-3" d="M613.94,135.13h-4.55V101h4.55Zm16.89-30.44H613V101h17.79Zm-2.15,14.65H613v-3.66h15.64Zm2.39,15.79H613v-3.65h18Z" transform="translate(-367.37 -45.41)"/><path class="cls-3" d="M661.89,130.66a11.11,11.11,0,0,1-2,2.07,11.84,11.84,0,0,1-3.79,2,19.24,19.24,0,0,1-6.27.85,14.11,14.11,0,0,1-7.37-1.92,13.17,13.17,0,0,1-5.05-5.55,19.19,19.19,0,0,1-1.83-8.72v-2.7a21.53,21.53,0,0,1,1.59-8.7,12.11,12.11,0,0,1,4.65-5.55,13.78,13.78,0,0,1,7.47-1.92,14.33,14.33,0,0,1,6.56,1.35A10.29,10.29,0,0,1,660,105.6a13.56,13.56,0,0,1,1.91,5.39h-4.55a9.49,9.49,0,0,0-1.21-3.38,6.52,6.52,0,0,0-2.56-2.46,8.69,8.69,0,0,0-4.27-.93,8.43,8.43,0,0,0-5.19,1.51,8.83,8.83,0,0,0-3,4.3,20.17,20.17,0,0,0-1,6.64v2.74a16.74,16.74,0,0,0,1.22,6.74,9.78,9.78,0,0,0,3.4,4.3,8.72,8.72,0,0,0,5.08,1.5,15.25,15.25,0,0,0,3.9-.41,8,8,0,0,0,2.34-1,6.53,6.53,0,0,0,1.29-1.09v-7.68h-7.88v-3.64h12.4Z" transform="translate(-367.37 -45.41)"/><path class="cls-3" d="M495.59,156v10.1a4.91,4.91,0,0,1-.76,2.8,4.59,4.59,0,0,1-2,1.68,6.43,6.43,0,0,1-2.68.56,6.58,6.58,0,0,1-2.74-.56,4.4,4.4,0,0,1-1.94-1.68,5.15,5.15,0,0,1-.71-2.8V156h2v10.1a3.86,3.86,0,0,0,.43,1.93,2.68,2.68,0,0,0,1.2,1.13,4,4,0,0,0,1.79.38,4.12,4.12,0,0,0,1.81-.38,2.65,2.65,0,0,0,1.19-1.13,4,4,0,0,0,.43-1.93V156Z" transform="translate(-367.37 -45.41)"/><path class="cls-3" d="M500.3,171h-1.91V159.88h1.81l.1,2.37Zm-1.25-6a6.53,6.53,0,0,1,.59-2.71,4.64,4.64,0,0,1,1.57-1.89,4.06,4.06,0,0,1,2.35-.69,4.13,4.13,0,0,1,1.9.41,2.78,2.78,0,0,1,1.23,1.28,5.34,5.34,0,0,1,.43,2.34V171h-1.91v-7.29a3.24,3.24,0,0,0-.26-1.4,1.52,1.52,0,0,0-.74-.78,2.75,2.75,0,0,0-1.21-.24,2.72,2.72,0,0,0-1.28.3,3.14,3.14,0,0,0-1,.82,3.9,3.9,0,0,0-.64,1.19,4.49,4.49,0,0,0-.23,1.42Z" transform="translate(-367.37 -45.41)"/><path class="cls-3" d="M510,156.92a1.09,1.09,0,0,1,.29-.76,1,1,0,0,1,.83-.32,1.08,1.08,0,0,1,.85.32,1.14,1.14,0,0,1,0,1.52,1.11,1.11,0,0,1-.85.31,1,1,0,0,1-.83-.31A1.09,1.09,0,0,1,510,156.92ZM512.07,171h-1.92V159.88h1.92Z" transform="translate(-367.37 -45.41)"/><path class="cls-3" d="M514.63,165.33a7.39,7.39,0,0,1,.55-3,4.53,4.53,0,0,1,1.53-2,3.86,3.86,0,0,1,2.31-.71,4,4,0,0,1,2.32.64,4.23,4.23,0,0,1,1.46,1.82,9,9,0,0,1,.69,2.81v1a9.07,9.07,0,0,1-.68,2.78,4.3,4.3,0,0,1-1.46,1.82,4.14,4.14,0,0,1-2.35.64,3.74,3.74,0,0,1-2.29-.74,4.65,4.65,0,0,1-1.53-2,7.16,7.16,0,0,1-.55-2.89Zm1.91.22a6.44,6.44,0,0,0,.31,2,3.18,3.18,0,0,0,.95,1.46,2.51,2.51,0,0,0,1.67.55,2.83,2.83,0,0,0,1.55-.4,3,3,0,0,0,1-1.06,5.7,5.7,0,0,0,.57-1.42v-2.5a6,6,0,0,0-.35-1.09,3.64,3.64,0,0,0-.59-.94,2.6,2.6,0,0,0-.9-.66,2.8,2.8,0,0,0-1.24-.25,2.53,2.53,0,0,0-1.69.56,3.14,3.14,0,0,0-.95,1.48,6.55,6.55,0,0,0-.31,2Zm5.54-10.33H524V171h-1.75l-.17-2.15Z" transform="translate(-367.37 -45.41)"/><path class="cls-3" d="M533.83,165.58h-1.9a5.09,5.09,0,0,0-2.51.51,1.69,1.69,0,0,0-.88,1.54,1.86,1.86,0,0,0,.54,1.35,2.09,2.09,0,0,0,1.57.56,3.16,3.16,0,0,0,1.54-.37,3.09,3.09,0,0,0,1.06-.92,2,2,0,0,0,.42-1l.82.91a2.85,2.85,0,0,1-.39,1,4.69,4.69,0,0,1-2.1,1.78,4,4,0,0,1-1.62.32,4.31,4.31,0,0,1-2-.44,3.26,3.26,0,0,1-1.31-1.18,3.33,3.33,0,0,1,.89-4.39,6.31,6.31,0,0,1,3.64-.92h2.19Zm-.35-2.22a2.1,2.1,0,0,0-.59-1.58,2.35,2.35,0,0,0-1.73-.59,2.88,2.88,0,0,0-1.25.25,2,2,0,0,0-.83.64,1.43,1.43,0,0,0-.3.87h-1.92a2.63,2.63,0,0,1,.54-1.55,4.1,4.1,0,0,1,1.54-1.24,5.13,5.13,0,0,1,2.33-.49,5.3,5.3,0,0,1,2.14.41,3.28,3.28,0,0,1,1.46,1.24,3.69,3.69,0,0,1,.53,2.06v5.17a7.14,7.14,0,0,0,.1,1.18,4.22,4.22,0,0,0,.29,1.08V171h-2a3.62,3.62,0,0,1-.22-.88,6.19,6.19,0,0,1-.09-1Z" transform="translate(-367.37 -45.41)"/><path class="cls-3" d="M537.92,165.33a7.57,7.57,0,0,1,.54-3,4.62,4.62,0,0,1,1.54-2,3.83,3.83,0,0,1,2.3-.71,4.07,4.07,0,0,1,2.33.64,4.3,4.3,0,0,1,1.46,1.82,9,9,0,0,1,.68,2.81v1a8.79,8.79,0,0,1-.67,2.78,4.3,4.3,0,0,1-1.46,1.82,4.15,4.15,0,0,1-2.36.64,3.69,3.69,0,0,1-2.28-.74,4.74,4.74,0,0,1-1.54-2,7.34,7.34,0,0,1-.54-2.89Zm1.91.22a6.44,6.44,0,0,0,.3,2,3.26,3.26,0,0,0,1,1.46,2.52,2.52,0,0,0,1.67.55,2.87,2.87,0,0,0,1.56-.4,3.12,3.12,0,0,0,1-1.06,6.59,6.59,0,0,0,.57-1.42v-2.5a6,6,0,0,0-.35-1.09,3.67,3.67,0,0,0-.6-.94,2.56,2.56,0,0,0-.89-.66,2.85,2.85,0,0,0-1.25-.25,2.49,2.49,0,0,0-1.68.56,3.16,3.16,0,0,0-1,1.48,6.55,6.55,0,0,0-.3,2Zm5.54-10.33h1.92V171h-1.76l-.16-2.15Z" transform="translate(-367.37 -45.41)"/><path class="cls-3" d="M555,165.33a7.39,7.39,0,0,1,.55-3,4.53,4.53,0,0,1,1.53-2,3.84,3.84,0,0,1,2.31-.71,4.06,4.06,0,0,1,2.32.64,4.23,4.23,0,0,1,1.46,1.82,9,9,0,0,1,.69,2.81v1a9.07,9.07,0,0,1-.68,2.78,4.3,4.3,0,0,1-1.46,1.82,4.15,4.15,0,0,1-2.36.64,3.71,3.71,0,0,1-2.28-.74,4.65,4.65,0,0,1-1.53-2,7.16,7.16,0,0,1-.55-2.89Zm1.91.22a6.44,6.44,0,0,0,.31,2,3.11,3.11,0,0,0,.95,1.46,2.51,2.51,0,0,0,1.67.55,2.83,2.83,0,0,0,1.55-.4,3,3,0,0,0,1-1.06,5.7,5.7,0,0,0,.57-1.42v-2.5a6,6,0,0,0-.35-1.09,3.64,3.64,0,0,0-.59-.94,2.6,2.6,0,0,0-.9-.66,2.8,2.8,0,0,0-1.24-.25,2.51,2.51,0,0,0-1.69.56,3.14,3.14,0,0,0-.95,1.48,6.55,6.55,0,0,0-.31,2Zm5.54-10.33h1.92V171H562.6l-.17-2.15Z" transform="translate(-367.37 -45.41)"/><path class="cls-3" d="M571.91,171.18a5.05,5.05,0,0,1-2.7-.7,4.7,4.7,0,0,1-1.77-1.9,5.89,5.89,0,0,1-.63-2.77v-.44a6.4,6.4,0,0,1,.69-3.08,5,5,0,0,1,1.81-1.95,4.53,4.53,0,0,1,2.35-.67,4.45,4.45,0,0,1,2.61.71,4.26,4.26,0,0,1,1.49,1.94,7.79,7.79,0,0,1,.47,2.78V166H568v-1.54h6.37v-.14a5,5,0,0,0-.3-1.44,2.62,2.62,0,0,0-.82-1.16,2.36,2.36,0,0,0-1.54-.46,2.47,2.47,0,0,0-1.52.49,3.14,3.14,0,0,0-1,1.41,6,6,0,0,0-.37,2.26v.44a4.65,4.65,0,0,0,.39,1.93,3.26,3.26,0,0,0,1.13,1.38,3,3,0,0,0,1.76.52,3.32,3.32,0,0,0,1.7-.41,4.1,4.1,0,0,0,1.22-1.1l1.16.9a5.45,5.45,0,0,1-1.53,1.49A4.75,4.75,0,0,1,571.91,171.18Z" transform="translate(-367.37 -45.41)"/><path class="cls-3" d="M589,168.72l.54,2.25H588L582.51,156h2.16ZM593.15,156h2.17L589.79,171h-1.54l.51-2.25Z" transform="translate(-367.37 -45.41)"/><path class="cls-3" d="M601.64,171.18a5,5,0,0,1-2.69-.7,4.7,4.7,0,0,1-1.77-1.9,5.89,5.89,0,0,1-.63-2.77v-.44a6.4,6.4,0,0,1,.69-3.08,5,5,0,0,1,1.8-1.95,4.59,4.59,0,0,1,2.36-.67,4.49,4.49,0,0,1,2.61.71,4.24,4.24,0,0,1,1.48,1.94,7.57,7.57,0,0,1,.48,2.78V166h-8.29v-1.54h6.37v-.14a4.68,4.68,0,0,0-.3-1.44,2.55,2.55,0,0,0-.82-1.16,2.31,2.31,0,0,0-1.53-.46,2.48,2.48,0,0,0-1.53.49,3.13,3.13,0,0,0-1,1.41,6,6,0,0,0-.38,2.26v.44a4.65,4.65,0,0,0,.39,1.93,3.34,3.34,0,0,0,1.13,1.38,3,3,0,0,0,1.77.52,3.34,3.34,0,0,0,1.7-.41,4.23,4.23,0,0,0,1.22-1.1l1.16.9a5.36,5.36,0,0,1-1.54,1.49A4.73,4.73,0,0,1,601.64,171.18Z" transform="translate(-367.37 -45.41)"/><path class="cls-3" d="M610.09,171h-1.92V159.88H610l.05,1.74Zm3.46-9.4c-.17,0-.32-.06-.46-.07h-.48a2.81,2.81,0,0,0-1.47.36,2.35,2.35,0,0,0-.92,1,3.94,3.94,0,0,0-.41,1.45l-.55.3a7.92,7.92,0,0,1,.36-2.45,4,4,0,0,1,1.12-1.79,3,3,0,0,1,2.43-.62,1.32,1.32,0,0,1,.38.1Z" transform="translate(-367.37 -45.41)"/><path class="cls-3" d="M615.31,156.92a1.13,1.13,0,0,1,.28-.76,1,1,0,0,1,.84-.32,1.08,1.08,0,0,1,.85.32,1.14,1.14,0,0,1,0,1.52,1.11,1.11,0,0,1-.85.31,1.07,1.07,0,0,1-.84-.31A1.13,1.13,0,0,1,615.31,156.92ZM617.37,171h-1.91V159.88h1.91Z" transform="translate(-367.37 -45.41)"/><path class="cls-3" d="M625.61,161.32h-6v-1.44h6ZM621.33,171V158.7A3.35,3.35,0,0,1,625,155a4.87,4.87,0,0,1,.66,0c.22,0,.43.07.64.12l-.1,1.53a3.28,3.28,0,0,0-.49-.06,4.78,4.78,0,0,0-.53,0,1.85,1.85,0,0,0-1.41.53,2.18,2.18,0,0,0-.51,1.55V171Z" transform="translate(-367.37 -45.41)"/><path class="cls-3" d="M627.72,156.92a1.08,1.08,0,0,1,.28-.76,1.13,1.13,0,0,1,1.68,1.52,1.12,1.12,0,0,1-2-.76ZM629.78,171h-1.92V159.88h1.92Z" transform="translate(-367.37 -45.41)"/><path class="cls-3" d="M637.25,169.64a2.94,2.94,0,0,0,1.26-.28,2.64,2.64,0,0,0,.94-.78,2.13,2.13,0,0,0,.42-1.12h1.81a3.3,3.3,0,0,1-.66,1.83,4.63,4.63,0,0,1-3.77,1.89,4.71,4.71,0,0,1-2.76-.77,4.58,4.58,0,0,1-1.64-2,6.92,6.92,0,0,1-.54-2.75v-.43a6.69,6.69,0,0,1,.55-2.75,4.58,4.58,0,0,1,1.64-2,4.7,4.7,0,0,1,2.75-.77,4.81,4.81,0,0,1,2.29.53,3.93,3.93,0,0,1,1.53,1.44,4.07,4.07,0,0,1,.61,2.05h-1.81a3,3,0,0,0-.38-1.25,2.5,2.5,0,0,0-2.24-1.23,2.67,2.67,0,0,0-1.82.59,3.26,3.26,0,0,0-.93,1.52,6.64,6.64,0,0,0-.27,1.89v.43a6.76,6.76,0,0,0,.27,1.9,3.08,3.08,0,0,0,.92,1.51A2.7,2.7,0,0,0,637.25,169.64Z" transform="translate(-367.37 -45.41)"/><path class="cls-3" d="M650.7,165.58h-1.91a5,5,0,0,0-2.5.51,1.67,1.67,0,0,0-.88,1.54A1.86,1.86,0,0,0,646,169a2.07,2.07,0,0,0,1.57.56,3.22,3.22,0,0,0,1.54-.37,3.15,3.15,0,0,0,1.05-.92,2,2,0,0,0,.42-1l.82.91a2.49,2.49,0,0,1-.39,1,4.47,4.47,0,0,1-.84,1,4.29,4.29,0,0,1-1.25.79,4.05,4.05,0,0,1-1.63.32,4.24,4.24,0,0,1-2-.44,3.26,3.26,0,0,1-1.31-1.18,3.34,3.34,0,0,1,.88-4.39,6.35,6.35,0,0,1,3.64-.92h2.2Zm-.35-2.22a2.14,2.14,0,0,0-.59-1.58,2.36,2.36,0,0,0-1.74-.59,2.83,2.83,0,0,0-1.24.25,2.13,2.13,0,0,0-.84.64,1.43,1.43,0,0,0-.3.87h-1.91a2.63,2.63,0,0,1,.54-1.55,4,4,0,0,1,1.53-1.24,5.16,5.16,0,0,1,2.33-.49,5.35,5.35,0,0,1,2.15.41,3.28,3.28,0,0,1,1.46,1.24,3.78,3.78,0,0,1,.53,2.06v5.17a8.33,8.33,0,0,0,.09,1.18,4.65,4.65,0,0,0,.3,1.08V171h-2a3.57,3.57,0,0,1-.23-.88,7.45,7.45,0,0,1-.08-1Z" transform="translate(-367.37 -45.41)"/><path class="cls-3" d="M659.69,169.64a2.9,2.9,0,0,0,1.25-.28,2.59,2.59,0,0,0,.95-.78,2.22,2.22,0,0,0,.42-1.12h1.81a3.31,3.31,0,0,1-.67,1.83,4.55,4.55,0,0,1-1.6,1.37,4.6,4.6,0,0,1-2.16.52,4.74,4.74,0,0,1-2.77-.77,4.63,4.63,0,0,1-1.63-2,6.92,6.92,0,0,1-.54-2.75v-.43a6.85,6.85,0,0,1,.54-2.75,4.65,4.65,0,0,1,1.64-2,5.26,5.26,0,0,1,5-.24,3.89,3.89,0,0,1,1.54,1.44,4.17,4.17,0,0,1,.61,2.05h-1.81a3,3,0,0,0-.39-1.25,2.5,2.5,0,0,0-.9-.9,2.6,2.6,0,0,0-1.33-.33,2.66,2.66,0,0,0-1.82.59,3.26,3.26,0,0,0-.93,1.52,6.64,6.64,0,0,0-.27,1.89v.43a6.75,6.75,0,0,0,.26,1.9,3.17,3.17,0,0,0,.93,1.51A2.67,2.67,0,0,0,659.69,169.64Z" transform="translate(-367.37 -45.41)"/><path class="cls-3" d="M666.26,156.92a1.09,1.09,0,0,1,.29-.76,1,1,0,0,1,.83-.32,1.08,1.08,0,0,1,.85.32,1.14,1.14,0,0,1,0,1.52,1.11,1.11,0,0,1-.85.31,1,1,0,0,1-.83-.31A1.09,1.09,0,0,1,666.26,156.92ZM668.33,171h-1.92V159.88h1.92Z" transform="translate(-367.37 -45.41)"/><path class="cls-3" d="M670.86,165.31a6.54,6.54,0,0,1,.61-2.88,4.82,4.82,0,0,1,1.75-2,4.7,4.7,0,0,1,2.67-.75,4.75,4.75,0,0,1,4.46,2.76,6.69,6.69,0,0,1,.61,2.88v.24a6.67,6.67,0,0,1-.61,2.87,5,5,0,0,1-7.13,2,4.92,4.92,0,0,1-1.75-2,6.53,6.53,0,0,1-.61-2.87Zm1.92.24a5.81,5.81,0,0,0,.34,2,3.55,3.55,0,0,0,1,1.5,2.74,2.74,0,0,0,1.75.56,2.69,2.69,0,0,0,1.74-.56,3.47,3.47,0,0,0,1-1.5,5.81,5.81,0,0,0,.35-2v-.24a5.81,5.81,0,0,0-.35-2,3.47,3.47,0,0,0-1-1.5,2.7,2.7,0,0,0-1.76-.57,2.63,2.63,0,0,0-1.73.57,3.39,3.39,0,0,0-1,1.5,5.81,5.81,0,0,0-.34,2Zm4.07-10.33h2.3l-2.76,3h-1.53Z" transform="translate(-367.37 -45.41)"/><path class="cls-3" d="M685.25,171h-1.91V159.88h1.81l.1,2.37ZM684,165a6.53,6.53,0,0,1,.59-2.71,4.64,4.64,0,0,1,1.57-1.89,4.06,4.06,0,0,1,2.35-.69,4.13,4.13,0,0,1,1.9.41,2.78,2.78,0,0,1,1.23,1.28,5.34,5.34,0,0,1,.43,2.34V171h-1.91v-7.29a3.24,3.24,0,0,0-.26-1.4,1.52,1.52,0,0,0-.74-.78,2.75,2.75,0,0,0-1.21-.24,2.72,2.72,0,0,0-1.28.3,3.25,3.25,0,0,0-1,.82,3.9,3.9,0,0,0-.64,1.19,4.49,4.49,0,0,0-.23,1.42Z" transform="translate(-367.37 -45.41)"/></svg>